<svg version="1" xmlns="http://www.w3.org/2000/svg" width="933.333" height="933.333" viewBox="0 0 700.000000 700.000000"><path d="M23.6 32.7c-2.9.8-8.7 4.7-11.8 7.9-8.5 9.3-7.9 25.8 1.4 34.5 7.1 6.7 18.5 9 27 5.5 4.6-2 10.4-7 12.4-10.7l1.5-2.9H129l.1 172.7c0 95.1.2 174.4.4 176.3 1.8 20 16.9 38 36.8 43.7 5.5 1.6 10.8 1.8 49.9 1.8H260l.1 4c0 4 0 27.6-.1 30.6 0 1.4-4.9 1.6-47.2 1.7-51.3.2-50.5.2-56.1 2.1-23 7.8-33.9 34-23 55.4 5 10 15.7 18.3 26.2 20.6 3.3.7 19.5 1.1 44.8 1.1h39.7l-3.4 2.5c-24.2 17.9-26.7 52.9-5.3 74.2 19.5 19.4 49.5 19.6 68.8.5 22.2-22.1 19.5-56.5-6-75.6-1.8-1.4 9.8-1.5 106-1.6 105.1 0 107.9.1 105 1.8-1.6 1-5.4 4.5-8.3 7.6-24.8 27.2-11.5 70.6 24.6 80.4 16.4 4.5 34.1-.5 46.8-13.3 13.7-13.7 17.9-31.9 11.8-50.7-2.8-8.7-10.3-18.5-18.4-24.1-2.3-1.6.6-1.7 58.7-1.7h61.1l-.1-10-.1-10H425.9c-252.5 0-259.9-.1-264.1-1.9-7.4-3.2-11.4-8.4-12.1-15.7-.9-8.5 4.1-17 11.8-20 4.2-1.6 21.7-1.7 264.3-1.8l259.7-.1v-20h-137l-.3-18-.2-18 52.7-.1c49 0 53.2-.1 58.8-1.9 16.3-5.2 28.1-16.7 34-33.5 1.9-5.3 2-9.4 2.3-145.8L696 140H149.3V97.5c0-34.1-.3-43.1-1.4-45.1-2.8-5.4-3.3-5.4-50.1-5.4H54.5L51 42.2C46.3 35.8 38.7 32 31.1 32.1c-3.1.1-6.5.4-7.5.6zm236.5 130.2v59.2l-.1 2.5h-55.2l-55.3-.1-.1-32.1v-32.1H260l.1 2.6zm142.4 29.6v32H280.4l.1-32.2v-32.2l61 .2 61 .2v32zm125.2-.2v32.2H422.6l-.1-31.5c0-17.3.1-31.8.2-32.2.2-.4 23.9-.7 52.7-.7l52.3.1v32.1zm147.9 0v32.2H548v-31.6c0-17.4.3-31.9.6-32.2.4-.3 29.1-.6 63.8-.6h63.2v32.2zm-415.9 53.1c.7.7.6 88.2-.1 89.4-.3.6-22.6.9-55.3.8l-54.8-.1-.1-45.2-.1-45.2 2.6-.3c4.6-.5 107.2 0 107.8.6zm141.5-.2c1 .4 1.3 9.3 1.3 45.4v44.9l-60.7.1c-33.5.1-60.9-.2-60.9-.5-.1-.3-.2-20.6-.3-45.1-.2-42.6-.1-44.5 1.7-45 2.4-.7 117.2-.4 118.9.2zm125.4-.3c.9.1 1.2 12.4 1.2 45.4l.1 45.4h-52.5l-52.4.1v-10.9c-.1-6-.1-16.5-.1-23.4 0-6.9 0-22.4.1-34.4v-22l2.8-.3c2.1-.2 95.7-.1 100.8.1zm146 0l3.1.1-.1 45.4-.1 45.3H548v-90.6l5.8-.3c4.5-.2 105.1-.1 118.8.1zM260.1 356.7c.4 4.2.2 81.9-.2 83.1-.6 1.6-3.9 1.8-43.7 1.7l-43-.1-6.5-3.2c-7.2-3.6-11.4-8-14.9-15.9-2.1-4.6-2.2-6.3-2.3-35.6l-.1-30.7h55.3c30.4 0 55.3.3 55.4.7zm142.3 40.6c-.1 22.6-.2 41.9-.3 42.7-.1 1.3-7.4 1.5-59.8 1.4-32.9-.1-60.3-.2-60.8-.3-.7-.1-1-14.4-1-42.6V356h122l-.1 41.3zm125.3 1.2c0 23.4-.3 42.6-.6 42.6-.3.1-23.9.2-52.3.3l-51.8.1-.1-2.5c-.3-7.1-.4-81.6-.1-82.3.2-.4 23.8-.7 52.6-.7h52.3v42.5zm147.9-11.7l-.1 30.8-3.3 6.6c-4.6 9.3-11.7 14.8-21.7 16.5-3.8.7-97.9 1-101.7.4-.5 0-.8-19.2-.8-42.6V356H675.7l-.1 30.8zm-148.1 92.8v17.9h-247V480c0-12.9.3-17.6 1.2-18 .7-.3 56.3-.5 123.5-.4l122.3.1v17.9zM282 592.7c18.8 8.1 23.3 32.2 8.8 47-10.4 10.6-27.6 11.4-39.2 1.9-11.6-9.5-13.8-27.2-5-39.4 8.2-11.3 22.4-15.1 35.4-9.5zm268.1 0c5.3 2.4 11.2 8.1 14.2 13.8 1.7 3.2 2.2 5.7 2.2 12.5 0 7.3-.4 9.2-2.7 13.5-9.8 18.5-34.1 21.4-47.9 5.8-8.5-9.8-9.6-23.2-2.8-34.4 3.3-5.3 7.8-9 14.1-11.8 5.7-2.6 16.5-2.3 22.9.6z"/></svg>