<?xml version="1.0" encoding="utf-8"?>
<!-- Generator: Adobe Illustrator 21.0.2, SVG Export Plug-In . SVG Version: 6.00 Build 0)  -->
<svg version="1.1" id="Layer_1" xmlns="http://www.w3.org/2000/svg" xmlns:xlink="http://www.w3.org/1999/xlink" x="0px" y="0px"
	 viewBox="0 0 512 512" style="enable-background:new 0 0 512 512;" xml:space="preserve">
<style type="text/css">
	.st0{fill:#469CE8;}
</style>
<path class="st0" d="M472.1,337.7c20.3,0,36.9-16.6,36.9-36.9V102.4H109.2V41.8c0-4.1-3.3-7.4-7.4-7.4H39.5
	c-2.8-6.6-9.4-11.2-17-11.2C12.3,23.3,4,31.6,4,41.8C4,52,12.3,60.3,22.5,60.3c7.6,0,14.2-4.6,17-11.2h55v53.2V150v150.8
	c0,20.3,16.5,36.9,36.9,36.9h58.9v26.4h-66.8c-16,0-29,13-29,29c0,16,13,29,29,29h55.3c-10.3,6.4-17.3,17.7-17.3,30.7
	c0,20,16.2,36.2,36.2,36.2c20,0,36.2-16.3,36.2-36.2c0-13-7-24.3-17.3-30.7h157.9c-10.3,6.4-17.3,17.7-17.3,30.7
	c0,20,16.3,36.2,36.2,36.2c20,0,36.2-16.3,36.2-36.2c0-13-7-24.3-17.3-30.7h89.2v-14.8H123.5c-7.9,0-14.3-6.4-14.3-14.3
	c0-7.9,6.4-14.3,14.3-14.3h378.1v-14.8H400.8v-26.4H472.1z M197.7,474.4c-11.8,0-21.5-9.6-21.5-21.5c0-11.8,9.6-21.5,21.5-21.5
	c11.8,0,21.5,9.6,21.5,21.5C219.2,464.7,209.5,474.4,197.7,474.4z M393.4,474.4c-11.8,0-21.5-9.6-21.5-21.5
	c0-11.8,9.6-21.5,21.5-21.5c11.9,0,21.5,9.6,21.5,21.5C414.9,464.7,405.3,474.4,393.4,474.4z M472.1,322.9h-71.3v-62.5h93.4v40.4
	C494.2,313,484.3,322.9,472.1,322.9z M109.2,179h81.1v66.6h-81.1V179z M205.1,179h89.3v66.6h-89.3V179z M386.1,245.6h-76.9V179h76.9
	V245.6z M400.8,179h93.4v66.6h-93.4V179z M309.1,164.2v-47.1h76.9v47.1H309.1z M294.4,164.2h-89.3v-47.1h89.3V164.2z M294.4,260.4
	v62.5h-89.3v-62.5H294.4z M309.1,260.4h76.9v62.5h-76.9V260.4z M494.2,164.2h-93.4v-47.1h93.4V164.2z M109.2,117.2h81.1v47.1h-81.1
	V150V117.2z M131.4,322.9c-12.2,0-22.1-9.9-22.1-22.1v-40.4h81.1v62.5H131.4z M386.1,364.1h-181v-26.4h181V364.1z"/>
</svg>
